<svg version="1.1" id="svg8" xmlns="http://www.w3.org/2000/svg" x="0" y="0" viewBox="0 0 1000 357.3" style="enable-background:new 0 0 1000 357.3" xml:space="preserve"><style>.st0{fill:#ff7a00}</style><path id="path2" class="st0" d="M40.8 29.2v9.5c.6 15.9 14.1 28.6 30.9 29.2h5.2c16.8-.6 30.3-13.3 30.9-29.2v-9.5C107.2 13.3 93.7.6 76.9 0h-5.2C54.9.6 41.4 13.3 40.8 29.2zm438.8 112.5v130.1c0 22.6 8.7 32.8 36.3 32.8 11.6 0 22.9-3.2 29.7-5.6v52.4c-11.6 3.9-29.2 5.8-43.7 5.8-58 0-85.4-29-85.4-79.2V15.5h63.1V99h66v42.7h-66z"/><path id="path4" d="M567 220.8c0-77.1 48.6-129.6 126.4-129.6 83.1 0 124.3 60.6 119.9 148.5H631.8c3.3 45.1 24.4 68 61.9 68 31.7 0 48.5-15.3 55.8-36.9h61.7c-12 53-53.9 86.4-117.8 86.4-78.8 0-126.4-52-126.4-130.1v-6.3zm125.9-79c-34.6 0-55.3 18.5-61.1 55.3l118.1-1c-3.4-34.3-21.9-54.3-57-54.3z" style="fill-rule:evenodd;clip-rule:evenodd;fill:#ff7a00"/><path id="path6" class="st0" d="M289.8 91.3c-40.6 0-65.6 24-78.2 47.6L208.7 99h-60.2v250.5h63.1V208.7c0-41.6 22-67 55.3-67s45.6 22 45.6 60.2v147.6h63.1V188.3c.2-55.9-24-97-85.8-97zm621.9 47.5c16-31.4 48.7-47.6 73.3-47.6 4.4 0 11.3.6 15 1.4v49c-6.1-.6-12.2-.9-18.3-1-44.9 0-70 27-70 72.8v135.9h-63.1V99h61.2l1.9 39.8zM0 99v42.7h42.7v207.8h63.1V99H0z"/></svg>