<svg width="512" height="512" viewBox="0 0 512 512" fill="none" xmlns="http://www.w3.org/2000/svg">
<path d="M352 144H464V256" stroke="#FF7A01" stroke-width="45" stroke-linecap="round" stroke-linejoin="round"/>
<path d="M48 368L169.37 246.63C172.342 243.658 175.87 241.3 179.752 239.691C183.635 238.083 187.797 237.255 192 237.255C196.203 237.255 200.365 238.083 204.248 239.691C208.13 241.3 211.658 243.658 214.63 246.63L265.37 297.37C268.342 300.342 271.87 302.7 275.752 304.309C279.635 305.917 283.797 306.745 288 306.745C292.203 306.745 296.365 305.917 300.248 304.309C304.13 302.7 307.658 300.342 310.63 297.37L448 160" stroke="#FF7A01" stroke-width="45" stroke-linecap="round" stroke-linejoin="round"/>
</svg>
