





<svg xmlns:xlink="http://www.w3.org/1999/xlink" width="24" height="24" viewBox="0 0 24 24" fill="none" xmlns="http://www.w3.org/2000/svg" data-testid="icon" color="#FF7A00"><path d="M10.5 12H13C14.1046 12 15 12.8954 15 14V14C15 15.1046 14.1046 16 13 16H8" stroke="#FF7A00" stroke-width="1.5px" stroke-linecap="round" stroke-linejoin="round" fill="none"></path><path d="M15 13.959L17.5502 12.7698C18.7815 12.1957 20.2415 12.7845 20.73 14.0523V14.0523C21.1733 15.2028 20.6501 16.5001 19.5326 17.0212L13.6924 19.7445C11.9415 20.561 9.97894 20.8086 8.08019 20.4525L3 19.5" stroke="#FF7A00" stroke-width="1.5px" stroke-linecap="round" stroke-linejoin="round" fill="none"></path><path d="M3 14C3 11.7909 4.79086 10 7 10C8.48056 10 9.77325 10.8044 10.4649 12" stroke="#FF7A00" stroke-width="1.5px" stroke-linecap="round" stroke-linejoin="round" fill="none"></path><path d="M17 4H15H14C13.4477 4 13 4.44772 13 5V5C13 5.55228 13.4477 6 14 6H15H16C16.5523 6 17 6.44772 17 7V7C17 7.55228 16.5523 8 16 8H13" stroke="#FF7A00" stroke-width="1.5px" stroke-linecap="round" stroke-linejoin="round" fill="none"></path><path d="M15 4L15 3" stroke="#FF7A00" stroke-width="1.5px" stroke-linecap="round" stroke-linejoin="round" fill="none"></path><path d="M15 9L15 8" stroke="#FF7A00" stroke-width="1.5px" stroke-linecap="round" stroke-linejoin="round" fill="none"></path></svg>
